<?xml version="1.0" encoding="UTF-8" standalone="no"?>
<!-- Created with Inkscape (http://www.inkscape.org/) -->

<svg
   width="32.000031"
   height="31.999998"
   viewBox="0 0 8.4666746 8.466666"
   version="1.1"
   id="svg5"
   xml:space="preserve"
   xmlns="http://www.w3.org/2000/svg"
   xmlns:svg="http://www.w3.org/2000/svg"><defs
     id="defs2"><rect
       x="661.30756"
       y="1.8158184"
       width="35.563805"
       height="21.801376"
       id="rect260685" /></defs><g
     id="layer1"
     transform="translate(-173.13333)"><g
       id="g99126"
       transform="matrix(0.74143858,0,0,0.74143858,85.572868,-0.31960653)"><path
         id="path99116"
         style="fill:#ffffff;fill-opacity:1;stroke:#000000;stroke-width:0.713703;stroke-dasharray:none;stop-color:#000000"
         d="m 119.0982,1.2066673 3.72231,-0.00996 2.16257,1.8778373 v 5.0454283 h -5.88488 z" /><path
         style="fill:none;fill-opacity:0.983898;stroke:#000000;stroke-width:0.713703;stroke-linecap:butt;stroke-linejoin:bevel;stroke-dasharray:none;stroke-dashoffset:0;stroke-opacity:1;stop-color:#000000"
         d="m 122.82051,1.1967063 v 1.8778373 h 2.16257"
         id="path99118" /><g
         id="g99124"
         transform="translate(-0.05162012,0.41665694)"><rect
           style="fill:none;fill-opacity:1;stroke:#000000;stroke-width:0.356851;stroke-linecap:square;stroke-linejoin:miter;stroke-dasharray:none;stroke-opacity:1;stop-color:#000000"
           id="rect99120"
           width="4.2333331"
           height="3.175"
           x="119.97559"
           y="3.7012677" /><rect
           style="fill:none;fill-opacity:1;stroke:#000000;stroke-width:0.356851;stroke-linecap:square;stroke-linejoin:miter;stroke-dasharray:0.713703, 0.713703;stroke-dashoffset:0;stroke-opacity:1;stop-color:#000000"
           id="rect99122"
           height="2.1166666"
           x="120.50476"
           y="4.2304335"
           width="3.175" /></g></g><g
       id="g260681"
       transform="matrix(-0.21287076,0.21071193,-0.21071193,-0.21287076,206.5654,-2.9022014)"
       style="fill:#999999"><path
         id="path260677"
         style="fill:#999999;stroke-width:0.113144;stroke-linecap:round;stroke-linejoin:round;stop-color:#000000"
         d="m 75.052642,43.307859 10.161239,2.139415 -8.151005,8.216058 z" /><rect
         style="fill:#999999;fill-opacity:1;stroke:none;stroke-width:0.132908;stroke-linecap:round;stroke-linejoin:round;stop-color:#000000"
         id="rect260679"
         width="14.164631"
         height="3.7342556"
         x="87.381927"
         y="-24.368973"
         transform="rotate(45)" /></g><g
       aria-label="PNG"
       transform="matrix(0.16599781,0,0,0.16599781,64.702853,5.4116224)"
       id="g99134"
       style="font-size:16px;line-height:1.25;white-space:pre;shape-inside:url(#rect260685);display:inline"><path
         d="m 666.39464,4.9504092 q 2.208,0 3.216,0.96 1.024,0.944 1.024,2.608 0,0.992 -0.416,1.8719998 -0.416,0.864 -1.392,1.392 -0.96,0.528 -2.624,0.528 h -1.04 v 4.064 h -2.416 V 4.9504092 Z m -0.128,1.984 h -1.104 v 3.3919998 h 0.8 q 1.024,0 1.616,-0.3999998 0.608,-0.416 0.608,-1.328 0,-1.664 -1.92,-1.664 z"
         style="font-weight:bold"
         id="path99128" /><path
         d="m 682.92264,16.374409 h -3.072 l -4.976,-8.6399998 h -0.064 q 0.032,0.816 0.064,1.632 0.048,0.8159998 0.08,1.6319998 v 5.376 h -2.16 V 4.9504092 h 3.056 l 4.96,8.5599998 h 0.048 q -0.016,-0.8 -0.048,-1.584 -0.032,-0.784 -0.064,-1.568 V 4.9504092 h 2.176 z"
         style="font-weight:bold"
         id="path99130" /><path
         d="m 690.13864,9.9584092 h 4.528 v 5.9199998 q -0.896,0.304 -1.872,0.48 -0.96,0.176 -2.192,0.176 -2.56,0 -3.936,-1.504 -1.376,-1.504 -1.376,-4.384 0,-1.7919998 0.688,-3.1039998 0.704,-1.312 2.032,-2.032 1.328,-0.72 3.248,-0.72 0.912,0 1.792,0.192 0.88,0.192 1.6,0.512 l -0.8,1.936 q -0.528,-0.272 -1.2,-0.448 -0.672,-0.176 -1.408,-0.176 -1.056,0 -1.84,0.48 -0.768,0.48 -1.2,1.36 -0.416,0.864 -0.416,2.0479998 0,1.12 0.304,1.984 0.304,0.864 0.96,1.36 0.656,0.48 1.712,0.48 0.512,0 0.864,-0.048 0.368,-0.048 0.672,-0.112 v -2.384 h -2.16 z"
         style="font-weight:bold"
         id="path99132" /></g></g></svg>
