<?xml version="1.0" encoding="UTF-8" standalone="no"?>
<!-- Created with Inkscape (http://www.inkscape.org/) -->

<svg
   width="32.000031"
   height="31.999998"
   viewBox="0 0 8.4666746 8.466666"
   version="1.1"
   id="svg5"
   xml:space="preserve"
   xmlns="http://www.w3.org/2000/svg"
   xmlns:svg="http://www.w3.org/2000/svg"><defs
     id="defs2"><rect
       x="1011.2019"
       y="9.3183031"
       width="30.793585"
       height="22.372528"
       id="rect291832" /></defs><g
     id="layer1"
     transform="translate(-265.46671)"><g
       id="g274714"
       transform="rotate(135,215.46934,11.038568)"><path
         id="path290338"
         style="fill:#800080;fill-opacity:1;stroke:none;stroke-width:0.529167;stroke-linecap:round;stroke-linejoin:miter;stroke-dasharray:none;stroke-dashoffset:0;stroke-opacity:1;stop-color:#000000"
         d="m 171.09089,-19.177502 a 1.6569577,1.6569577 0 0 0 2.34336,-3.61e-4 1.6569577,1.6569577 0 0 0 0.42497,-0.728992 l 3.7e-4,-0.0011 a 1.6569577,1.6569577 0 0 0 0.0588,-0.391355 l 0.67235,-4.455042 -4.52959,0.653346 a 1.6569577,1.6569577 0 0 0 -0.26382,0.038 l -0.0161,0.0022 3.6e-4,0.0011 a 1.6569577,1.6569577 0 0 0 -0.78964,0.439587 1.6569577,1.6569577 0 0 0 0,2.34372 1.6569577,1.6569577 0 0 0 1.7006,0.397563 1.6569577,1.6569577 0 0 0 0.39829,1.701335 z" /><g
         aria-label="!"
         transform="matrix(-0.21507537,-0.21507537,-0.21507537,0.21507537,394.21433,191.54947)"
         id="text291830"
         style="font-size:16px;line-height:1.25;white-space:pre;shape-inside:url(#rect291832);fill:#ffffff"><path
           d="m 1014.4492,20.084362 h -1.904 l -0.4,-7.632 h 2.704 z m -2.336,2.672 q 0,-0.736 0.4,-1.024 0.4,-0.304 0.976,-0.304 0.56,0 0.96,0.304 0.4,0.288 0.4,1.024 0,0.704 -0.4,1.024 -0.4,0.304 -0.96,0.304 -0.576,0 -0.976,-0.304 -0.4,-0.32 -0.4,-1.024 z"
           style="font-weight:bold"
           id="path291843" /></g></g></g></svg>
