<?xml version="1.0" encoding="UTF-8" standalone="no"?>
<!-- Created with Inkscape (http://www.inkscape.org/) -->

<svg
   width="32.000031"
   height="31.999998"
   viewBox="0 0 8.4666746 8.466666"
   version="1.1"
   id="svg5"
   inkscape:version="1.2 (dc2aedaf03, 2022-05-15)"
   sodipodi:docname="icons.svg"
   xml:space="preserve"
   inkscape:export-filename="../Code/drawall/www/icons/recenter.svg"
   inkscape:export-xdpi="90"
   inkscape:export-ydpi="90"
   xmlns:inkscape="http://www.inkscape.org/namespaces/inkscape"
   xmlns:sodipodi="http://sodipodi.sourceforge.net/DTD/sodipodi-0.dtd"
   xmlns="http://www.w3.org/2000/svg"
   xmlns:svg="http://www.w3.org/2000/svg"><sodipodi:namedview
     id="namedview7"
     pagecolor="#ffffff"
     bordercolor="#666666"
     borderopacity="1.0"
     inkscape:showpageshadow="2"
     inkscape:pageopacity="0.0"
     inkscape:pagecheckerboard="0"
     inkscape:deskcolor="#d1d1d1"
     inkscape:document-units="px"
     showgrid="false"
     inkscape:zoom="10.341437"
     inkscape:cx="3563.0928"
     inkscape:cy="9.8148835"
     inkscape:window-width="2394"
     inkscape:window-height="1250"
     inkscape:window-x="2163"
     inkscape:window-y="16"
     inkscape:window-maximized="0"
     inkscape:current-layer="layer1"
     showguides="true"><sodipodi:guide
       position="-325.17989,6.935362"
       orientation="1,0"
       id="guide78456"
       inkscape:locked="false" /></sodipodi:namedview><defs
     id="defs2"><rect
       x="3516.552"
       y="11.115762"
       width="30.920115"
       height="16.287081"
       id="rect192660" /></defs><g
     inkscape:label="Layer 1"
     inkscape:groupmode="layer"
     id="layer1"
     transform="translate(-948.73364)"><g
       id="g53633-2-9"
       transform="translate(406.25128,-0.01556385)"><rect
         style="fill:#d6995c;fill-opacity:1;stroke:#7c5124;stroke-width:0.529167;stroke-linecap:butt;stroke-dasharray:none;stroke-dashoffset:0;stroke-opacity:1;stop-color:#000000"
         id="rect52264-5-1"
         width="6.6723723"
         height="6.6723657"
         x="543.37952"
         y="0.91271412" /><path
         style="fill:#d6995c;fill-opacity:1;stroke:#7c5124;stroke-width:0.529167;stroke-linecap:butt;stroke-dasharray:none;stroke-dashoffset:0;stroke-opacity:1;stop-color:#000000"
         d="m 544.2507,1.9664598 h 4.58753"
         id="path53623-4-4" /><path
         style="fill:#d6995c;fill-opacity:1;stroke:#7c5124;stroke-width:0.529167;stroke-linecap:butt;stroke-dasharray:none;stroke-dashoffset:0;stroke-opacity:1;stop-color:#000000"
         d="m 546.18768,6.5316078 h 3.02848"
         id="path53625-05-9" /><path
         style="fill:#d6995c;fill-opacity:1;stroke:#7c5124;stroke-width:0.529167;stroke-linecap:butt;stroke-dasharray:none;stroke-dashoffset:0;stroke-opacity:1;stop-color:#000000"
         d="m 544.34957,4.897573 h 3.02848"
         id="path53627-94-1" /></g><g
       aria-label="LABEL"
       transform="matrix(0.20374117,0.20374117,-0.20374117,0.20374117,237.13705,-718.50426)"
       id="text192658-5"
       style="font-size:9.33333px;line-height:1.25;white-space:pre;shape-inside:url(#rect192660)"><path
         d="m 3517.3927,19.6074 v -6.663998 h 1.4094 v 5.497332 h 2.7066 V 19.6074 Z"
         style="font-weight:bold"
         id="path192666-4" /><path
         d="m 3526.7447,19.6074 -0.4853,-1.586666 h -2.4267 l -0.4853,1.586666 h -1.5213 l 2.352,-6.691998 h 1.7266 l 2.3614,6.691998 z m -0.8213,-2.771999 -0.4853,-1.549333 q -0.047,-0.158667 -0.1214,-0.401333 -0.075,-0.242667 -0.1493,-0.494667 -0.075,-0.252 -0.1213,-0.438666 -0.047,0.186666 -0.1307,0.466666 -0.075,0.270667 -0.1493,0.522667 -0.065,0.242666 -0.1027,0.345333 l -0.476,1.549333 z"
         style="font-weight:bold"
         id="path192668-4" /><path
         d="m 3529.1061,12.943402 h 2.072 q 1.3346,0 2.016,0.373333 0.6813,0.373334 0.6813,1.316 0,0.569333 -0.2707,0.961333 -0.2613,0.392 -0.756,0.476 v 0.04667 q 0.336,0.06533 0.6067,0.233334 0.2707,0.168 0.4293,0.485333 0.1587,0.317333 0.1587,0.84 0,0.905333 -0.6533,1.418666 -0.6534,0.513333 -1.792,0.513333 h -2.492 z m 1.4093,2.641333 h 0.8213 q 0.616,0 0.8494,-0.196 0.2426,-0.196 0.2426,-0.569334 0,-0.382666 -0.28,-0.550666 -0.28,-0.168 -0.8866,-0.168 h -0.7467 z m 0,1.119999 v 1.736 h 0.924 q 0.6347,0 0.8867,-0.242667 0.252,-0.252 0.252,-0.662666 0,-0.373334 -0.2614,-0.597334 -0.252,-0.233333 -0.924,-0.233333 z"
         style="font-weight:bold"
         id="path192670-9" /><path
         d="m 3539.2141,19.6074 h -3.836 v -6.663998 h 3.836 v 1.157333 h -2.4267 v 1.465333 h 2.2587 v 1.157333 h -2.2587 v 1.717333 h 2.4267 z"
         style="font-weight:bold"
         id="path192672-9" /><path
         d="m 3540.6047,19.6074 v -6.663998 h 1.4094 v 5.497332 h 2.7066 V 19.6074 Z"
         style="font-weight:bold"
         id="path192674-3" /></g><g
       id="g269550-1-2"
       transform="matrix(0.17594817,0,0,0.17594817,927.17128,-31.49649)"><ellipse
         style="fill:#bfbfbf;fill-opacity:1;stroke:#4d4d4d;stroke-width:1.268;stroke-linecap:square;stroke-linejoin:round;stroke-dasharray:none;stroke-dashoffset:0;stroke-opacity:1;stop-color:#000000"
         id="ellipse269528-1-8"
         cx="158.41231"
         cy="-187.83788"
         rx="9.930953"
         ry="4.6344647"
         transform="scale(1,-1)" /><path
         style="fill:#000000;fill-opacity:1;stroke:#4d4d4d;stroke-width:1.268;stroke-linecap:square;stroke-linejoin:round;stroke-dasharray:none;stroke-dashoffset:0;stroke-opacity:1;stop-color:#000000"
         d="m 151.02558,190.93554 -1.7431,3.04131"
         id="path269530-5-3" /><path
         style="fill:#000000;fill-opacity:1;stroke:#4d4d4d;stroke-width:1.268;stroke-linecap:square;stroke-linejoin:round;stroke-dasharray:none;stroke-dashoffset:0;stroke-opacity:1;stop-color:#000000"
         d="m 165.84446,191.03763 1.89716,2.51962"
         id="path269532-9-8" /><path
         style="fill:#000000;fill-opacity:1;stroke:#4d4d4d;stroke-width:1.268;stroke-linecap:square;stroke-linejoin:round;stroke-dasharray:none;stroke-dashoffset:0;stroke-opacity:1;stop-color:#000000"
         d="m 154.30243,192.4562 -0.83659,3.06761"
         id="path269534-7-0" /><path
         style="fill:#000000;fill-opacity:1;stroke:#4d4d4d;stroke-width:1.268;stroke-linecap:square;stroke-linejoin:round;stroke-dasharray:none;stroke-dashoffset:0;stroke-opacity:1;stop-color:#000000"
         d="m 163.16924,192.17159 1.31104,2.98635"
         id="path269536-7-4" /><path
         style="fill:#000000;fill-opacity:1;stroke:#4d4d4d;stroke-width:1.268;stroke-linecap:square;stroke-linejoin:round;stroke-dasharray:none;stroke-dashoffset:0;stroke-opacity:1;stop-color:#000000"
         d="m 157.27689,192.44197 -0.3955,3.86031"
         id="path269538-6-0" /><path
         style="fill:#000000;fill-opacity:1;stroke:#4d4d4d;stroke-width:1.268;stroke-linecap:square;stroke-linejoin:round;stroke-dasharray:none;stroke-dashoffset:0;stroke-opacity:1;stop-color:#000000"
         d="m 159.80706,192.42642 0.7788,3.87586"
         id="path269540-7-9" /><path
         style="fill:#000000;fill-opacity:1;stroke:#4d4d4d;stroke-width:1.268;stroke-linecap:square;stroke-linejoin:round;stroke-dasharray:none;stroke-dashoffset:0;stroke-opacity:1;stop-color:#000000"
         d="m 148.74702,189.55571 -2.15145,2.61588"
         id="path269542-3-1" /><path
         style="fill:#000000;fill-opacity:1;stroke:#4d4d4d;stroke-width:1.268;stroke-linecap:square;stroke-linejoin:round;stroke-dasharray:none;stroke-dashoffset:0;stroke-opacity:1;stop-color:#000000"
         d="m 147.35344,189.37167 -0.7399,-0.40015"
         id="path269544-6-9" /><path
         style="fill:#000000;fill-opacity:1;stroke:#4d4d4d;stroke-width:1.268;stroke-linecap:square;stroke-linejoin:round;stroke-dasharray:none;stroke-dashoffset:0;stroke-opacity:1;stop-color:#000000"
         d="m 148.60805,188.91661 -0.52643,-0.61933"
         id="path269546-5-6" /><path
         style="fill:none;fill-opacity:1;stroke:#2d2d2d;stroke-width:1.268;stroke-linecap:round;stroke-linejoin:round;stroke-dasharray:none;stroke-dashoffset:0;stroke-opacity:1;stop-color:#000000"
         d="m 148.48136,187.83788 c 1.55985,5.34173 18.35036,5.21229 19.8619,0"
         id="path269548-6-2"
         sodipodi:nodetypes="cc" /></g></g></svg>
