<?xml version="1.0" encoding="UTF-8" standalone="no"?>
<!-- Created with Inkscape (http://www.inkscape.org/) -->

<svg
   width="32.000031"
   height="31.999998"
   viewBox="0 0 8.4666746 8.466666"
   version="1.1"
   id="svg5"
   xml:space="preserve"
   xmlns="http://www.w3.org/2000/svg"
   xmlns:svg="http://www.w3.org/2000/svg"><defs
     id="defs2"><rect
       x="3516.552"
       y="11.115762"
       width="30.920115"
       height="16.287081"
       id="rect192660" /></defs><g
     id="layer1"
     transform="translate(-930.26697)"><g
       id="g53633-3-0"
       transform="translate(387.7846,-0.01556385)"><rect
         style="fill:#d6995c;fill-opacity:1;stroke:#7c5124;stroke-width:0.529167;stroke-linecap:butt;stroke-dasharray:none;stroke-dashoffset:0;stroke-opacity:1;stop-color:#000000"
         id="rect52264-0-7"
         width="6.6723723"
         height="6.6723657"
         x="543.37952"
         y="0.91271412" /><path
         style="fill:#d6995c;fill-opacity:1;stroke:#7c5124;stroke-width:0.529167;stroke-linecap:butt;stroke-dasharray:none;stroke-dashoffset:0;stroke-opacity:1;stop-color:#000000"
         d="m 544.2507,1.9664598 h 4.58753"
         id="path53623-3-5" /><path
         style="fill:#d6995c;fill-opacity:1;stroke:#7c5124;stroke-width:0.529167;stroke-linecap:butt;stroke-dasharray:none;stroke-dashoffset:0;stroke-opacity:1;stop-color:#000000"
         d="m 546.18768,6.5316078 h 3.02848"
         id="path53625-0-8" /><path
         style="fill:#d6995c;fill-opacity:1;stroke:#7c5124;stroke-width:0.529167;stroke-linecap:butt;stroke-dasharray:none;stroke-dashoffset:0;stroke-opacity:1;stop-color:#000000"
         d="m 544.34957,4.897573 h 3.02848"
         id="path53627-9-7" /></g><g
       id="g269526-6-0-0"
       transform="matrix(0.17511464,0,0,0.17511464,908.84697,-29.298586)"><ellipse
         style="fill:#ffffff;fill-opacity:1;stroke:#000000;stroke-width:1.268;stroke-linecap:square;stroke-linejoin:round;stroke-dasharray:none;stroke-dashoffset:0;stroke-opacity:1;stop-color:#000000"
         id="ellipse269500-1-8-4"
         cx="158.41231"
         cy="176.15129"
         rx="9.930953"
         ry="4.6344647" /><circle
         style="fill:#bfbfbf;fill-opacity:1;stroke:#000000;stroke-width:1.268;stroke-linecap:square;stroke-linejoin:round;stroke-dasharray:none;stroke-dashoffset:0;stroke-opacity:1;stop-color:#000000"
         id="circle269502-0-8-2"
         cx="158.41231"
         cy="176.15129"
         r="4.6344647" /><circle
         style="fill:#000000;fill-opacity:1;stroke:#000000;stroke-width:0.469583;stroke-linecap:square;stroke-linejoin:round;stroke-dasharray:none;stroke-dashoffset:0;stroke-opacity:1;stop-color:#000000"
         id="circle269504-6-5-9"
         cx="158.41231"
         cy="176.81242"
         r="1.7162994" /><path
         style="fill:#000000;fill-opacity:1;stroke:#000000;stroke-width:1.268;stroke-linecap:square;stroke-linejoin:round;stroke-dasharray:none;stroke-dashoffset:0;stroke-opacity:1;stop-color:#000000"
         d="m 151.02558,173.05364 -1.7431,-3.04131"
         id="path269506-1-0-6" /><path
         style="fill:#000000;fill-opacity:1;stroke:#000000;stroke-width:1.268;stroke-linecap:square;stroke-linejoin:round;stroke-dasharray:none;stroke-dashoffset:0;stroke-opacity:1;stop-color:#000000"
         d="m 165.84446,172.95155 1.89716,-2.51962"
         id="path269508-5-9-1" /><path
         style="fill:#000000;fill-opacity:1;stroke:#000000;stroke-width:1.268;stroke-linecap:square;stroke-linejoin:round;stroke-dasharray:none;stroke-dashoffset:0;stroke-opacity:1;stop-color:#000000"
         d="m 154.30243,171.53298 -0.83659,-3.06761"
         id="path269510-9-6-0" /><path
         style="fill:#000000;fill-opacity:1;stroke:#000000;stroke-width:1.268;stroke-linecap:square;stroke-linejoin:round;stroke-dasharray:none;stroke-dashoffset:0;stroke-opacity:1;stop-color:#000000"
         d="m 163.16924,171.81759 1.31104,-2.98635"
         id="path269512-4-3-4" /><path
         style="fill:#000000;fill-opacity:1;stroke:#000000;stroke-width:1.268;stroke-linecap:square;stroke-linejoin:round;stroke-dasharray:none;stroke-dashoffset:0;stroke-opacity:1;stop-color:#000000"
         d="m 157.27689,171.54721 -0.3955,-3.86031"
         id="path269514-9-8-2" /><path
         style="fill:#000000;fill-opacity:1;stroke:#000000;stroke-width:1.268;stroke-linecap:square;stroke-linejoin:round;stroke-dasharray:none;stroke-dashoffset:0;stroke-opacity:1;stop-color:#000000"
         d="m 159.80706,171.56276 0.7788,-3.87586"
         id="path269516-0-5-2" /><path
         style="fill:#000000;fill-opacity:1;stroke:#000000;stroke-width:1.268;stroke-linecap:square;stroke-linejoin:round;stroke-dasharray:none;stroke-dashoffset:0;stroke-opacity:1;stop-color:#000000"
         d="m 148.74702,174.43347 -2.15145,-2.61588"
         id="path269518-9-6-2" /><path
         style="fill:#000000;fill-opacity:1;stroke:#000000;stroke-width:1.268;stroke-linecap:square;stroke-linejoin:round;stroke-dasharray:none;stroke-dashoffset:0;stroke-opacity:1;stop-color:#000000"
         d="m 167.73107,174.54928 2.75051,-2.5358"
         id="path269520-1-1-0" /><path
         style="fill:#000000;fill-opacity:1;stroke:#000000;stroke-width:1.268;stroke-linecap:square;stroke-linejoin:round;stroke-dasharray:none;stroke-dashoffset:0;stroke-opacity:1;stop-color:#000000"
         d="m 148.58266,178.71271 -0.7399,0.40015"
         id="path269522-7-1-5" /><path
         style="fill:#000000;fill-opacity:1;stroke:#000000;stroke-width:1.268;stroke-linecap:square;stroke-linejoin:round;stroke-dasharray:none;stroke-dashoffset:0;stroke-opacity:1;stop-color:#000000"
         d="m 149.83727,179.16777 -0.52643,0.61933"
         id="path269524-7-5-5" /></g><g
       aria-label="LABEL"
       transform="matrix(0.20374117,0.20374117,-0.20374117,0.20374117,218.67037,-718.50426)"
       id="text192658"
       style="font-size:9.33333px;line-height:1.25;white-space:pre;shape-inside:url(#rect192660)"><path
         d="m 3517.3927,19.6074 v -6.663998 h 1.4094 v 5.497332 h 2.7066 V 19.6074 Z"
         style="font-weight:bold"
         id="path192666" /><path
         d="m 3526.7447,19.6074 -0.4853,-1.586666 h -2.4267 l -0.4853,1.586666 h -1.5213 l 2.352,-6.691998 h 1.7266 l 2.3614,6.691998 z m -0.8213,-2.771999 -0.4853,-1.549333 q -0.047,-0.158667 -0.1214,-0.401333 -0.075,-0.242667 -0.1493,-0.494667 -0.075,-0.252 -0.1213,-0.438666 -0.047,0.186666 -0.1307,0.466666 -0.075,0.270667 -0.1493,0.522667 -0.065,0.242666 -0.1027,0.345333 l -0.476,1.549333 z"
         style="font-weight:bold"
         id="path192668" /><path
         d="m 3529.1061,12.943402 h 2.072 q 1.3346,0 2.016,0.373333 0.6813,0.373334 0.6813,1.316 0,0.569333 -0.2707,0.961333 -0.2613,0.392 -0.756,0.476 v 0.04667 q 0.336,0.06533 0.6067,0.233334 0.2707,0.168 0.4293,0.485333 0.1587,0.317333 0.1587,0.84 0,0.905333 -0.6533,1.418666 -0.6534,0.513333 -1.792,0.513333 h -2.492 z m 1.4093,2.641333 h 0.8213 q 0.616,0 0.8494,-0.196 0.2426,-0.196 0.2426,-0.569334 0,-0.382666 -0.28,-0.550666 -0.28,-0.168 -0.8866,-0.168 h -0.7467 z m 0,1.119999 v 1.736 h 0.924 q 0.6347,0 0.8867,-0.242667 0.252,-0.252 0.252,-0.662666 0,-0.373334 -0.2614,-0.597334 -0.252,-0.233333 -0.924,-0.233333 z"
         style="font-weight:bold"
         id="path192670" /><path
         d="m 3539.2141,19.6074 h -3.836 v -6.663998 h 3.836 v 1.157333 h -2.4267 v 1.465333 h 2.2587 v 1.157333 h -2.2587 v 1.717333 h 2.4267 z"
         style="font-weight:bold"
         id="path192672" /><path
         d="m 3540.6047,19.6074 v -6.663998 h 1.4094 v 5.497332 h 2.7066 V 19.6074 Z"
         style="font-weight:bold"
         id="path192674" /></g></g></svg>
