<?xml version="1.0" encoding="UTF-8" standalone="no"?>
<!-- Created with Inkscape (http://www.inkscape.org/) -->

<svg
   width="32.000031"
   height="31.999998"
   viewBox="0 0 8.4666746 8.466666"
   version="1.1"
   id="svg5"
   xml:space="preserve"
   xmlns="http://www.w3.org/2000/svg"
   xmlns:svg="http://www.w3.org/2000/svg"><defs
     id="defs2"><rect
       x="3078.2625"
       y="0"
       width="69.791046"
       height="30.757454"
       id="rect145898" /><rect
       x="3078.2625"
       y="0"
       width="69.791046"
       height="30.757454"
       id="rect145956" /></defs><g
     id="layer1"
     transform="translate(-819.46692)"><g
       id="g148885"
       transform="translate(0,0.2989894)"><g
         id="g147631"
         transform="translate(0,2.1905183)"><g
           aria-label="ROOM"
           transform="matrix(0.13681568,0,0,0.13681568,399.04878,0.67711596)"
           id="text145896"
           style="font-size:16px;line-height:1.25;white-space:pre;shape-inside:url(#rect145898)"><path
             d="m 3083.0297,3.1340029 q 2.336,0 3.44,0.848 1.12,0.848 1.12,2.576 0,0.784 -0.304,1.376 -0.288,0.576 -0.784,0.992 -0.48,0.4 -1.04,0.656 l 3.36,4.9760001 h -2.688 l -2.72,-4.384 h -1.296 v 4.384 h -2.416 V 3.1340029 Z m -0.176,1.984 h -0.736 v 3.088 h 0.784 q 1.2,0 1.712,-0.4 0.528,-0.4 0.528,-1.184 0,-0.816 -0.56,-1.152 -0.544,-0.352 -1.728,-0.352 z"
             style="font-weight:bold"
             id="path147597" /><path
             d="m 3100.6297,8.8300029 q 0,1.7760001 -0.592,3.1040001 -0.576,1.312 -1.776,2.048 -1.2,0.736 -3.072,0.736 -1.856,0 -3.072,-0.736 -1.2,-0.736 -1.792,-2.064 -0.576,-1.328 -0.576,-3.1040001 0,-1.776 0.576,-3.088 0.592,-1.312 1.792,-2.032 1.216,-0.736 3.088,-0.736 1.856,0 3.056,0.736 1.2,0.72 1.776,2.048 0.592,1.312 0.592,3.088 z m -8.336,0 q 0,1.7920001 0.688,2.8320001 0.688,1.024 2.208,1.024 1.552,0 2.224,-1.024 0.672,-1.04 0.672,-2.8320001 0,-1.808 -0.672,-2.832 -0.672,-1.024 -2.208,-1.024 -1.536,0 -2.224,1.024 -0.688,1.024 -0.688,2.832 z"
             style="font-weight:bold"
             id="path147599" /><path
             d="m 3113.3657,8.8300029 q 0,1.7760001 -0.592,3.1040001 -0.576,1.312 -1.776,2.048 -1.2,0.736 -3.072,0.736 -1.856,0 -3.072,-0.736 -1.2,-0.736 -1.792,-2.064 -0.576,-1.328 -0.576,-3.1040001 0,-1.776 0.576,-3.088 0.592,-1.312 1.792,-2.032 1.216,-0.736 3.088,-0.736 1.856,0 3.056,0.736 1.2,0.72 1.776,2.048 0.592,1.312 0.592,3.088 z m -8.336,0 q 0,1.7920001 0.688,2.8320001 0.688,1.024 2.208,1.024 1.552,0 2.224,-1.024 0.672,-1.04 0.672,-2.8320001 0,-1.808 -0.672,-2.832 -0.672,-1.024 -2.208,-1.024 -1.536,0 -2.224,1.024 -0.688,1.024 -0.688,2.832 z"
             style="font-weight:bold"
             id="path147601" /><path
             d="m 3120.5657,14.558003 -2.752,-8.9600001 h -0.064 q 0.016,0.32 0.048,0.96 0.032,0.64 0.064,1.376 0.032,0.72 0.032,1.312 v 5.3120001 h -2.16 V 3.1340029 h 3.296 l 2.704,8.7360001 h 0.048 l 2.864,-8.7360001 h 3.296 V 14.558003 h -2.256 V 9.1500029 q 0,-0.544 0.016,-1.248 0.032,-0.704 0.048,-1.328 0.032,-0.64 0.048,-0.96 h -0.064 l -2.944,8.9440001 z"
             style="font-weight:bold"
             id="path147603" /></g><g
           aria-label="100 ft²"
           transform="matrix(0.12486888,0,0,0.12486888,436.12552,3.5885258)"
           id="text145954"
           style="font-size:16px;line-height:1.25;white-space:pre;shape-inside:url(#rect145956);fill:#4d4d4d"><path
             d="m 3084.8697,14.558003 h -2.416 V 7.9500029 q 0,-0.416 0.016,-1.088 0.032,-0.672 0.048,-1.184 -0.08,0.096 -0.352,0.352 -0.256,0.24 -0.48,0.432 l -1.312,1.056 -1.168,-1.456 3.68,-2.928 h 1.984 z"
             style="font-weight:bold"
             id="path147606" /><path
             d="m 3095.9737,8.8460029 q 0,1.8400001 -0.4,3.1520001 -0.384,1.312 -1.264,2.016 -0.864,0.704 -2.336,0.704 -2.064,0 -3.024,-1.552 -0.96,-1.568 -0.96,-4.3200001 0,-1.856 0.384,-3.168 0.384,-1.312 1.264,-2.016 0.88,-0.704 2.336,-0.704 2.048,0 3.024,1.552 0.976,1.552 0.976,4.336 z m -5.584,0 q 0,1.9520001 0.336,2.9440001 0.336,0.976 1.248,0.976 0.896,0 1.248,-0.976 0.352,-0.976 0.352,-2.9440001 0,-1.952 -0.352,-2.944 -0.352,-0.992 -1.248,-0.992 -0.912,0 -1.248,0.992 -0.336,0.992 -0.336,2.944 z"
             style="font-weight:bold"
             id="path147608" /><path
             d="m 3105.1257,8.8460029 q 0,1.8400001 -0.4,3.1520001 -0.384,1.312 -1.264,2.016 -0.864,0.704 -2.336,0.704 -2.064,0 -3.024,-1.552 -0.96,-1.568 -0.96,-4.3200001 0,-1.856 0.384,-3.168 0.384,-1.312 1.264,-2.016 0.88,-0.704 2.336,-0.704 2.048,0 3.024,1.552 0.976,1.552 0.976,4.336 z m -5.584,0 q 0,1.9520001 0.336,2.9440001 0.336,0.976 1.248,0.976 0.896,0 1.248,-0.976 0.352,-0.976 0.352,-2.9440001 0,-1.952 -0.352,-2.944 -0.352,-0.992 -1.248,-0.992 -0.912,0 -1.248,0.992 -0.336,0.992 -0.336,2.944 z"
             style="font-weight:bold"
             id="path147610" /><path
             d="m 3115.9577,7.6140029 h -2.064 v 6.9440001 h -2.384 V 7.6140029 h -1.312 v -1.152 l 1.312,-0.64 v -0.64 q 0,-1.12 0.368,-1.728 0.384,-0.624 1.072,-0.88 0.704,-0.256 1.648,-0.256 0.704,0 1.264,0.112 0.576,0.112 0.928,0.256 l -0.608,1.744 q -0.272,-0.08 -0.592,-0.144 -0.32,-0.08 -0.736,-0.08 -0.496,0 -0.736,0.304 -0.224,0.304 -0.224,0.768 v 0.544 h 2.064 z"
             style="font-weight:bold"
             id="path147612" /><path
             d="m 3120.9977,12.814003 q 0.4,0 0.768,-0.08 0.368,-0.08 0.736,-0.192 v 1.776 q -0.384,0.16 -0.96,0.272 -0.56,0.128 -1.232,0.128 -0.784,0 -1.408,-0.256 -0.608,-0.256 -0.976,-0.88 -0.352,-0.64 -0.352,-1.76 V 7.6140029 h -1.136 v -1.008 l 1.312,-0.8 0.688,-1.84 h 1.52 v 1.856 h 2.448 v 1.792 h -2.448 v 4.2080001 q 0,0.496 0.288,0.752 0.288,0.24 0.752,0.24 z"
             style="font-weight:bold"
             id="path147614" /><path
             d="m 3128.5017,7.9020029 h -5.056 v -1.312 l 1.744,-1.712 q 0.72,-0.704 0.976,-1.072 0.272,-0.384 0.272,-0.8 0,-0.288 -0.192,-0.448 -0.176,-0.16 -0.496,-0.16 -0.624,0 -1.408,0.688 l -0.96,-1.184 q 0.512,-0.448 1.136,-0.72 0.64,-0.28799996 1.488,-0.28799996 1.04,0 1.664,0.51199996 0.64,0.496 0.64,1.44 0,0.72 -0.4,1.312 -0.4,0.592 -1.344,1.44 l -0.816,0.736 h 2.752 z"
             style="font-weight:bold"
             id="path147616" /></g></g><g
         id="g148773"
         transform="matrix(0.17511464,0,0,0.17511464,795.93753,-28.98189)"><ellipse
           style="fill:#ffffff;fill-opacity:1;stroke:#000000;stroke-width:1.268;stroke-linecap:square;stroke-linejoin:round;stroke-dasharray:none;stroke-dashoffset:0;stroke-opacity:1;stop-color:#000000"
           id="ellipse148747"
           cx="158.41231"
           cy="176.15129"
           rx="9.930953"
           ry="4.6344647" /><circle
           style="fill:#bfbfbf;fill-opacity:1;stroke:#000000;stroke-width:1.268;stroke-linecap:square;stroke-linejoin:round;stroke-dasharray:none;stroke-dashoffset:0;stroke-opacity:1;stop-color:#000000"
           id="circle148749"
           cx="158.41231"
           cy="176.15129"
           r="4.6344647" /><circle
           style="fill:#000000;fill-opacity:1;stroke:#000000;stroke-width:0.469583;stroke-linecap:square;stroke-linejoin:round;stroke-dasharray:none;stroke-dashoffset:0;stroke-opacity:1;stop-color:#000000"
           id="circle148751"
           cx="158.41231"
           cy="176.81242"
           r="1.7162994" /><path
           style="fill:#000000;fill-opacity:1;stroke:#000000;stroke-width:1.268;stroke-linecap:square;stroke-linejoin:round;stroke-dasharray:none;stroke-dashoffset:0;stroke-opacity:1;stop-color:#000000"
           d="m 151.02558,173.05364 -1.7431,-3.04131"
           id="path148753" /><path
           style="fill:#000000;fill-opacity:1;stroke:#000000;stroke-width:1.268;stroke-linecap:square;stroke-linejoin:round;stroke-dasharray:none;stroke-dashoffset:0;stroke-opacity:1;stop-color:#000000"
           d="m 165.84446,172.95155 1.89716,-2.51962"
           id="path148755" /><path
           style="fill:#000000;fill-opacity:1;stroke:#000000;stroke-width:1.268;stroke-linecap:square;stroke-linejoin:round;stroke-dasharray:none;stroke-dashoffset:0;stroke-opacity:1;stop-color:#000000"
           d="m 154.30243,171.53298 -0.83659,-3.06761"
           id="path148757" /><path
           style="fill:#000000;fill-opacity:1;stroke:#000000;stroke-width:1.268;stroke-linecap:square;stroke-linejoin:round;stroke-dasharray:none;stroke-dashoffset:0;stroke-opacity:1;stop-color:#000000"
           d="m 163.16924,171.81759 1.31104,-2.98635"
           id="path148759" /><path
           style="fill:#000000;fill-opacity:1;stroke:#000000;stroke-width:1.268;stroke-linecap:square;stroke-linejoin:round;stroke-dasharray:none;stroke-dashoffset:0;stroke-opacity:1;stop-color:#000000"
           d="m 157.27689,171.54721 -0.3955,-3.86031"
           id="path148761" /><path
           style="fill:#000000;fill-opacity:1;stroke:#000000;stroke-width:1.268;stroke-linecap:square;stroke-linejoin:round;stroke-dasharray:none;stroke-dashoffset:0;stroke-opacity:1;stop-color:#000000"
           d="m 159.80706,171.56276 0.7788,-3.87586"
           id="path148763" /><path
           style="fill:#000000;fill-opacity:1;stroke:#000000;stroke-width:1.268;stroke-linecap:square;stroke-linejoin:round;stroke-dasharray:none;stroke-dashoffset:0;stroke-opacity:1;stop-color:#000000"
           d="m 148.74702,174.43347 -2.15145,-2.61588"
           id="path148765" /><path
           style="fill:#000000;fill-opacity:1;stroke:#000000;stroke-width:1.268;stroke-linecap:square;stroke-linejoin:round;stroke-dasharray:none;stroke-dashoffset:0;stroke-opacity:1;stop-color:#000000"
           d="m 167.73107,174.54928 2.75051,-2.5358"
           id="path148767" /><path
           style="fill:#000000;fill-opacity:1;stroke:#000000;stroke-width:1.268;stroke-linecap:square;stroke-linejoin:round;stroke-dasharray:none;stroke-dashoffset:0;stroke-opacity:1;stop-color:#000000"
           d="m 148.58266,178.71271 -0.7399,0.40015"
           id="path148769" /><path
           style="fill:#000000;fill-opacity:1;stroke:#000000;stroke-width:1.268;stroke-linecap:square;stroke-linejoin:round;stroke-dasharray:none;stroke-dashoffset:0;stroke-opacity:1;stop-color:#000000"
           d="m 149.83727,179.16777 -0.52643,0.61933"
           id="path148771" /></g></g></g></svg>
