<?xml version="1.0" encoding="UTF-8" standalone="no"?>
<!-- Created with Inkscape (http://www.inkscape.org/) -->

<svg
   width="19.264496mm"
   height="19.264496mm"
   viewBox="0 0 19.264496 19.264496"
   version="1.1"
   id="svg5"
   inkscape:version="1.2 (dc2aedaf03, 2022-05-15)"
   sodipodi:docname="icons.svg"
   xml:space="preserve"
   xmlns:inkscape="http://www.inkscape.org/namespaces/inkscape"
   xmlns:sodipodi="http://sodipodi.sourceforge.net/DTD/sodipodi-0.dtd"
   xmlns="http://www.w3.org/2000/svg"
   xmlns:svg="http://www.w3.org/2000/svg"><sodipodi:namedview
     id="namedview7"
     pagecolor="#ffffff"
     bordercolor="#666666"
     borderopacity="1.0"
     inkscape:showpageshadow="2"
     inkscape:pageopacity="0.0"
     inkscape:pagecheckerboard="0"
     inkscape:deskcolor="#d1d1d1"
     inkscape:document-units="mm"
     showgrid="false"
     inkscape:zoom="0.70710678"
     inkscape:cx="356.38182"
     inkscape:cy="557.90725"
     inkscape:window-width="1729"
     inkscape:window-height="1314"
     inkscape:window-x="2580"
     inkscape:window-y="32"
     inkscape:window-maximized="0"
     inkscape:current-layer="layer1" /><defs
     id="defs2"><rect
       x="56.855072"
       y="791.81567"
       width="83.576111"
       height="54.696022"
       id="rect60547" /></defs><g
     inkscape:label="Layer 1"
     inkscape:groupmode="layer"
     id="layer1"
     transform="translate(-64.682924,-196.61909)"><path
       id="rect60535"
       style="fill:#c9c9c9;fill-opacity:0;stroke-width:0.374999;stroke-linecap:round;stroke-linejoin:round;stop-color:#000000"
       d="m 64.682922,196.61908 h 19.264496 v 19.2645 H 64.682922 Z"
       inkscape:export-filename="../Code/drawall/www/icons/snap-off.svg"
       inkscape:export-xdpi="90"
       inkscape:export-ydpi="90" /><g
       id="g61663"
       clip-path="none"><path
         id="path60537"
         style="fill:#4d4d4d;fill-opacity:1;stroke:none;stroke-width:0.771579;stroke-linecap:round;stroke-linejoin:miter;stroke-dasharray:none;stroke-dashoffset:0;stroke-opacity:1;stop-color:#000000"
         d="m 70.588738,213.81943 h 9.989576 c 2.89295,-0.15399 2.91083,-15.41176 0,-15.13241 h -1.92185 -8.067726 v 3.84421 h 8.067726 c 1.00504,2.38239 1.07096,4.85724 0,7.44399 h -8.067726 z"
         sodipodi:nodetypes="cccccccccc" /><path
         id="rect60539"
         style="fill:#4d4d4d;stroke-width:0.4509;stroke-linecap:round;stop-color:#000000"
         transform="rotate(90)"
         d="m 198.68704,-69.287201 h 3.84394 v 3.411592 h -3.84394 z" /><path
         id="rect60541"
         style="fill:#4d4d4d;stroke-width:0.4509;stroke-linecap:round;stop-color:#000000"
         transform="rotate(90)"
         d="m 209.97537,-69.287201 h 3.84394 v 3.411592 h -3.84394 z" /><g
         aria-label="SNAP"
         transform="matrix(0.26458333,0,0,0.26458333,51.283559,-5.5887488)"
         id="text60545"
         style="font-size:16px;line-height:1.25;white-space:pre;shape-inside:url(#rect60547);display:inline;fill:#4d4d4d"><path
           d="m 65.031469,803.20641 q 0,1.52 -1.104,2.432 -1.088,0.896 -3.104,0.896 -1.808,0 -3.232,-0.688 v -2.256 q 0.816,0.352 1.68,0.656 0.88,0.288 1.744,0.288 0.896,0 1.264,-0.336 0.384,-0.352 0.384,-0.88 0,-0.432 -0.304,-0.736 -0.288,-0.304 -0.784,-0.56 -0.496,-0.272 -1.136,-0.576 -0.4,-0.192 -0.864,-0.448 -0.464,-0.272 -0.896,-0.656 -0.416,-0.4 -0.688,-0.96 -0.272,-0.56 -0.272,-1.344 0,-1.536 1.04,-2.384 1.04,-0.864 2.832,-0.864 0.896,0 1.696,0.208 0.816,0.208 1.696,0.592 l -0.784,1.888 q -0.784,-0.32 -1.408,-0.496 -0.624,-0.176 -1.28,-0.176 -0.688,0 -1.056,0.32 -0.368,0.32 -0.368,0.832 0,0.608 0.544,0.96 0.544,0.352 1.616,0.864 0.88,0.416 1.488,0.864 0.624,0.448 0.96,1.056 0.336,0.608 0.336,1.504 z"
           style="font-weight:bold"
           id="path108454" /><path
           d="m 77.239478,806.37441 h -3.072 l -4.976,-8.64 h -0.064 q 0.032,0.816 0.064,1.632 0.048,0.816 0.08,1.632 v 5.376 h -2.16 v -11.424 h 3.056 l 4.96,8.56 h 0.048 q -0.016,-0.8 -0.048,-1.584 -0.032,-0.784 -0.064,-1.568 v -5.408 h 2.176 z"
           style="font-weight:bold"
           id="path108456" /><path
           d="m 87.111474,806.37441 -0.832,-2.72 h -4.16 l -0.832,2.72 h -2.608 l 4.032,-11.472 h 2.96 l 4.048,11.472 z m -1.408,-4.752 -0.832,-2.656 q -0.08,-0.272 -0.208,-0.688 -0.128,-0.416 -0.256,-0.848 -0.128,-0.432 -0.208,-0.752 -0.08,0.32 -0.224,0.8 -0.128,0.464 -0.256,0.896 -0.112,0.416 -0.176,0.592 l -0.816,2.656 z"
           style="font-weight:bold"
           id="path108458" /><path
           d="m 94.807482,794.95041 q 2.208,0 3.216,0.96 1.024,0.944 1.024,2.608 0,0.992 -0.416,1.872 -0.416,0.864 -1.392,1.392 -0.96,0.528 -2.624,0.528 h -1.04 v 4.064 h -2.416 v -11.424 z m -0.128,1.984 h -1.104 v 3.392 h 0.8 q 1.024,0 1.616,-0.4 0.608,-0.416 0.608,-1.328 0,-1.664 -1.92,-1.664 z"
           style="font-weight:bold"
           id="path108460" /></g></g></g></svg>
