<?xml version="1.0" encoding="UTF-8" standalone="no"?>
<!-- Created with Inkscape (http://www.inkscape.org/) -->

<svg
   width="31.999973"
   height="31.999998"
   viewBox="0 0 8.4666594 8.466666"
   version="1.1"
   id="svg5"
   xml:space="preserve"
   xmlns="http://www.w3.org/2000/svg"
   xmlns:svg="http://www.w3.org/2000/svg"><defs
     id="defs2" /><g
     id="layer1"
     transform="translate(-136.2)"><path
       id="rect250679"
       style="stroke-width:0.264583;stroke-linejoin:bevel;stop-color:#000000"
       d="m 138.89078,1.4566062 -0.14384,0.8700673 c 0.78438,-0.3359195 1.65406,-0.677371 2.4554,-0.4526364 0.95039,0.2665349 1.84883,1.0535434 2.20827,1.9728259 0.29752,0.7609171 0.195,1.7452749 -0.23543,2.4397103 -0.24024,0.3875922 -1.16106,0.7234867 -1.16106,0.7234867 l -0.74626,-0.3113943 c 0,0 0.96517,-0.283457 1.22397,-0.6699088 0.37037,-0.5530681 0.45011,-1.3603762 0.21951,-1.9847825 -0.24533,-0.6642781 -0.86197,-1.2849856 -1.54991,-1.4528724 -0.72445,-0.1767955 -1.4507,0.2156112 -2.15345,0.606121 l 0.82854,0.6015912 -2.55034,-0.4644994 z" /></g></svg>
